<svg id="visual" viewBox="0 0 900 600" width="900" height="600" xmlns="http://www.w3.org/2000/svg" xmlns:xlink="http://www.w3.org/1999/xlink" version="1.1"><path d="M0 73L82 61L164 67L245 79L327 103L409 97L491 49L573 97L655 103L736 73L818 37L900 37L900 0L818 0L736 0L655 0L573 0L491 0L409 0L327 0L245 0L164 0L82 0L0 0Z" fill="#00b3c1"></path><path d="M0 229L82 181L164 121L245 205L327 223L409 187L491 199L573 229L655 235L736 163L818 91L900 109L900 35L818 35L736 71L655 101L573 95L491 47L409 95L327 101L245 77L164 65L82 59L0 71Z" fill="#00a7ad"></path><path d="M0 349L82 421L164 355L245 277L327 385L409 457L491 283L573 439L655 331L736 295L818 277L900 403L900 107L818 89L736 161L655 233L573 227L491 197L409 185L327 221L245 203L164 119L82 179L0 227Z" fill="#009b99"></path><path d="M0 427L82 475L164 421L245 391L327 457L409 499L491 403L573 481L655 439L736 361L818 397L900 481L900 401L818 275L736 293L655 329L573 437L491 281L409 455L327 383L245 275L164 353L82 419L0 347Z" fill="#008f86"></path><path d="M0 601L82 601L164 601L245 601L327 601L409 601L491 601L573 601L655 601L736 601L818 601L900 601L900 479L818 395L736 359L655 437L573 479L491 401L409 497L327 455L245 389L164 419L82 473L0 425Z" fill="#038373"></path></svg>