<svg id="visual" viewBox="0 0 900 600" width="900" height="600" xmlns="http://www.w3.org/2000/svg" xmlns:xlink="http://www.w3.org/1999/xlink" version="1.1"><path d="M0 103L13.7 107C27.3 111 54.7 119 82 118C109.3 117 136.7 107 163.8 107C191 107 218 117 245.2 113C272.3 109 299.7 91 327 85C354.3 79 381.7 85 409 100C436.3 115 463.7 139 491 140C518.3 141 545.7 119 573 115C600.3 111 627.7 125 654.8 127C682 129 709 119 736.2 113C763.3 107 790.7 105 818 107C845.3 109 872.7 115 886.3 118L900 121L900 0L886.3 0C872.7 0 845.3 0 818 0C790.7 0 763.3 0 736.2 0C709 0 682 0 654.8 0C627.7 0 600.3 0 573 0C545.7 0 518.3 0 491 0C463.7 0 436.3 0 409 0C381.7 0 354.3 0 327 0C299.7 0 272.3 0 245.2 0C218 0 191 0 163.8 0C136.7 0 109.3 0 82 0C54.7 0 27.3 0 13.7 0L0 0Z" fill="#ff00ec"></path><path d="M0 199L13.7 193C27.3 187 54.7 175 82 175C109.3 175 136.7 187 163.8 195C191 203 218 207 245.2 203C272.3 199 299.7 187 327 176C354.3 165 381.7 155 409 165C436.3 175 463.7 205 491 209C518.3 213 545.7 191 573 191C600.3 191 627.7 213 654.8 212C682 211 709 187 736.2 175C763.3 163 790.7 163 818 170C845.3 177 872.7 191 886.3 198L900 205L900 119L886.3 116C872.7 113 845.3 107 818 105C790.7 103 763.3 105 736.2 111C709 117 682 127 654.8 125C627.7 123 600.3 109 573 113C545.7 117 518.3 139 491 138C463.7 137 436.3 113 409 98C381.7 83 354.3 77 327 83C299.7 89 272.3 107 245.2 111C218 115 191 105 163.8 105C136.7 105 109.3 115 82 116C54.7 117 27.3 109 13.7 105L0 101Z" fill="#c717dd"></path><path d="M0 331L13.7 335C27.3 339 54.7 347 82 340C109.3 333 136.7 311 163.8 318C191 325 218 361 245.2 389C272.3 417 299.7 437 327 433C354.3 429 381.7 401 409 401C436.3 401 463.7 429 491 430C518.3 431 545.7 405 573 403C600.3 401 627.7 423 654.8 420C682 417 709 389 736.2 381C763.3 373 790.7 385 818 392C845.3 399 872.7 401 886.3 402L900 403L900 203L886.3 196C872.7 189 845.3 175 818 168C790.7 161 763.3 161 736.2 173C709 185 682 209 654.8 210C627.7 211 600.3 189 573 189C545.7 189 518.3 211 491 207C463.7 203 436.3 173 409 163C381.7 153 354.3 163 327 174C299.7 185 272.3 197 245.2 201C218 205 191 201 163.8 193C136.7 185 109.3 173 82 173C54.7 173 27.3 185 13.7 191L0 197Z" fill="#901ec9"></path><path d="M0 529L13.7 523C27.3 517 54.7 505 82 501C109.3 497 136.7 501 163.8 508C191 515 218 525 245.2 533C272.3 541 299.7 547 327 539C354.3 531 381.7 509 409 507C436.3 505 463.7 523 491 529C518.3 535 545.7 529 573 526C600.3 523 627.7 523 654.8 520C682 517 709 511 736.2 510C763.3 509 790.7 513 818 510C845.3 507 872.7 497 886.3 492L900 487L900 401L886.3 400C872.7 399 845.3 397 818 390C790.7 383 763.3 371 736.2 379C709 387 682 415 654.8 418C627.7 421 600.3 399 573 401C545.7 403 518.3 429 491 428C463.7 427 436.3 399 409 399C381.7 399 354.3 427 327 431C299.7 435 272.3 415 245.2 387C218 359 191 323 163.8 316C136.7 309 109.3 331 82 338C54.7 345 27.3 337 13.7 333L0 329Z" fill="#581fb2"></path><path d="M0 601L13.7 601C27.3 601 54.7 601 82 601C109.3 601 136.7 601 163.8 601C191 601 218 601 245.2 601C272.3 601 299.7 601 327 601C354.3 601 381.7 601 409 601C436.3 601 463.7 601 491 601C518.3 601 545.7 601 573 601C600.3 601 627.7 601 654.8 601C682 601 709 601 736.2 601C763.3 601 790.7 601 818 601C845.3 601 872.7 601 886.3 601L900 601L900 485L886.3 490C872.7 495 845.3 505 818 508C790.7 511 763.3 507 736.2 508C709 509 682 515 654.8 518C627.7 521 600.3 521 573 524C545.7 527 518.3 533 491 527C463.7 521 436.3 503 409 505C381.7 507 354.3 529 327 537C299.7 545 272.3 539 245.2 531C218 523 191 513 163.8 506C136.7 499 109.3 495 82 499C54.7 503 27.3 515 13.7 521L0 527Z" fill="#001b98"></path></svg>