<svg id="visual" viewBox="0 0 900 600" width="900" height="600" xmlns="http://www.w3.org/2000/svg" xmlns:xlink="http://www.w3.org/1999/xlink" version="1.1"><path d="M0 151L13.7 155C27.3 159 54.7 167 82 182C109.3 197 136.7 219 163.8 219C191 219 218 197 245.2 172C272.3 147 299.7 119 327 106C354.3 93 381.7 95 409 102C436.3 109 463.7 121 491 139C518.3 157 545.7 181 573 180C600.3 179 627.7 153 654.8 164C682 175 709 223 736.2 216C763.3 209 790.7 147 818 117C845.3 87 872.7 89 886.3 90L900 91L900 0L886.3 0C872.7 0 845.3 0 818 0C790.7 0 763.3 0 736.2 0C709 0 682 0 654.8 0C627.7 0 600.3 0 573 0C545.7 0 518.3 0 491 0C463.7 0 436.3 0 409 0C381.7 0 354.3 0 327 0C299.7 0 272.3 0 245.2 0C218 0 191 0 163.8 0C136.7 0 109.3 0 82 0C54.7 0 27.3 0 13.7 0L0 0Z" fill="#f976db"></path><path d="M0 205L13.7 208C27.3 211 54.7 217 82 230C109.3 243 136.7 263 163.8 267C191 271 218 259 245.2 239C272.3 219 299.7 191 327 179C354.3 167 381.7 171 409 179C436.3 187 463.7 199 491 216C518.3 233 545.7 255 573 250C600.3 245 627.7 213 654.8 224C682 235 709 289 736.2 287C763.3 285 790.7 227 818 192C845.3 157 872.7 145 886.3 139L900 133L900 89L886.3 88C872.7 87 845.3 85 818 115C790.7 145 763.3 207 736.2 214C709 221 682 173 654.8 162C627.7 151 600.3 177 573 178C545.7 179 518.3 155 491 137C463.7 119 436.3 107 409 100C381.7 93 354.3 91 327 104C299.7 117 272.3 145 245.2 170C218 195 191 217 163.8 217C136.7 217 109.3 195 82 180C54.7 165 27.3 157 13.7 153L0 149Z" fill="#cf72df"></path><path d="M0 289L13.7 303C27.3 317 54.7 345 82 363C109.3 381 136.7 389 163.8 387C191 385 218 373 245.2 355C272.3 337 299.7 313 327 308C354.3 303 381.7 317 409 312C436.3 307 463.7 283 491 298C518.3 313 545.7 367 573 371C600.3 375 627.7 329 654.8 329C682 329 709 375 736.2 379C763.3 383 790.7 345 818 319C845.3 293 872.7 279 886.3 272L900 265L900 131L886.3 137C872.7 143 845.3 155 818 190C790.7 225 763.3 283 736.2 285C709 287 682 233 654.8 222C627.7 211 600.3 243 573 248C545.7 253 518.3 231 491 214C463.7 197 436.3 185 409 177C381.7 169 354.3 165 327 177C299.7 189 272.3 217 245.2 237C218 257 191 269 163.8 265C136.7 261 109.3 241 82 228C54.7 215 27.3 209 13.7 206L0 203Z" fill="#9f6fde"></path><path d="M0 541L13.7 537C27.3 533 54.7 525 82 522C109.3 519 136.7 521 163.8 515C191 509 218 495 245.2 498C272.3 501 299.7 521 327 531C354.3 541 381.7 541 409 534C436.3 527 463.7 513 491 512C518.3 511 545.7 523 573 525C600.3 527 627.7 519 654.8 520C682 521 709 531 736.2 531C763.3 531 790.7 521 818 516C845.3 511 872.7 511 886.3 511L900 511L900 263L886.3 270C872.7 277 845.3 291 818 317C790.7 343 763.3 381 736.2 377C709 373 682 327 654.8 327C627.7 327 600.3 373 573 369C545.7 365 518.3 311 491 296C463.7 281 436.3 305 409 310C381.7 315 354.3 301 327 306C299.7 311 272.3 335 245.2 353C218 371 191 383 163.8 385C136.7 387 109.3 379 82 361C54.7 343 27.3 315 13.7 301L0 287Z" fill="#686bd7"></path><path d="M0 601L13.7 601C27.3 601 54.7 601 82 601C109.3 601 136.7 601 163.8 601C191 601 218 601 245.2 601C272.3 601 299.7 601 327 601C354.3 601 381.7 601 409 601C436.3 601 463.7 601 491 601C518.3 601 545.7 601 573 601C600.3 601 627.7 601 654.8 601C682 601 709 601 736.2 601C763.3 601 790.7 601 818 601C845.3 601 872.7 601 886.3 601L900 601L900 509L886.3 509C872.7 509 845.3 509 818 514C790.7 519 763.3 529 736.2 529C709 529 682 519 654.8 518C627.7 517 600.3 525 573 523C545.7 521 518.3 509 491 510C463.7 511 436.3 525 409 532C381.7 539 354.3 539 327 529C299.7 519 272.3 499 245.2 496C218 493 191 507 163.8 513C136.7 519 109.3 517 82 520C54.7 523 27.3 531 13.7 535L0 539Z" fill="#0066cb"></path></svg>