<svg id="visual" viewBox="0 0 900 600" width="900" height="600" xmlns="http://www.w3.org/2000/svg" xmlns:xlink="http://www.w3.org/1999/xlink" version="1.1"><g stroke-width="1" stroke-linejoin="bevel"><path d="M412 272L500 212L434 216Z" fill="#00101c" stroke="#00101c"></path><path d="M412 272L513 332L500 212Z" fill="#001427" stroke="#001427"></path><path d="M600 328L573 187L500 212Z" fill="#00101c" stroke="#00101c"></path><path d="M500 212L472 106L434 216Z" fill="#00193e" stroke="#00193e"></path><path d="M434 216L332 282L412 272Z" fill="#00183b" stroke="#00183b"></path><path d="M373 414L533 423L513 332Z" fill="#001324" stroke="#001324"></path><path d="M513 332L600 328L500 212Z" fill="#001324" stroke="#001324"></path><path d="M573 187L472 106L500 212Z" fill="#00101c" stroke="#00101c"></path><path d="M434 216L315 128L332 282Z" fill="#00183b" stroke="#00183b"></path><path d="M533 423L596 365L513 332Z" fill="#001324" stroke="#001324"></path><path d="M513 332L596 365L600 328Z" fill="#001324" stroke="#001324"></path><path d="M373 414L513 332L412 272Z" fill="#001427" stroke="#001427"></path><path d="M332 282L373 414L412 272Z" fill="#00152b" stroke="#00152b"></path><path d="M332 282L336 415L373 414Z" fill="#001733" stroke="#001733"></path><path d="M373 414L433 475L533 423Z" fill="#00101c" stroke="#00101c"></path><path d="M385 75L315 128L434 216Z" fill="#001427" stroke="#001427"></path><path d="M332 282L173 415L336 415Z" fill="#00101c" stroke="#00101c"></path><path d="M472 106L385 75L434 216Z" fill="#001942" stroke="#001942"></path><path d="M320 474L433 475L373 414Z" fill="#00101c" stroke="#00101c"></path><path d="M675 97L579 68L573 187Z" fill="#001427" stroke="#001427"></path><path d="M573 187L579 68L472 106Z" fill="#00101c" stroke="#00101c"></path><path d="M472 106L436 0L385 75Z" fill="#00162f" stroke="#00162f"></path><path d="M315 128L264 177L332 282Z" fill="#00193e" stroke="#00193e"></path><path d="M702 370L696 277L600 328Z" fill="#001837" stroke="#001837"></path><path d="M600 328L696 277L573 187Z" fill="#001942" stroke="#001942"></path><path d="M702 370L600 328L596 365Z" fill="#001220" stroke="#001220"></path><path d="M433 475L508 487L533 423Z" fill="#001733" stroke="#001733"></path><path d="M533 423L571 477L596 365Z" fill="#001733" stroke="#001733"></path><path d="M508 487L571 477L533 423Z" fill="#00183b" stroke="#00183b"></path><path d="M667 472L702 370L596 365Z" fill="#00152b" stroke="#00152b"></path><path d="M336 415L320 474L373 414Z" fill="#001942" stroke="#001942"></path><path d="M433 475L515 600L508 487Z" fill="#001324" stroke="#001324"></path><path d="M173 415L320 474L336 415Z" fill="#001220" stroke="#001220"></path><path d="M827 283L729 236L696 277Z" fill="#00183b" stroke="#00183b"></path><path d="M696 277L729 236L573 187Z" fill="#00193e" stroke="#00193e"></path><path d="M729 236L675 97L573 187Z" fill="#001324" stroke="#001324"></path><path d="M575 0L495 0L579 68Z" fill="#001837" stroke="#001837"></path><path d="M579 68L495 0L472 106Z" fill="#001427" stroke="#001427"></path><path d="M262 0L235 116L315 128Z" fill="#001427" stroke="#001427"></path><path d="M315 128L235 116L264 177Z" fill="#001324" stroke="#001324"></path><path d="M495 0L436 0L472 106Z" fill="#00162f" stroke="#00162f"></path><path d="M262 0L315 128L385 75Z" fill="#001733" stroke="#001733"></path><path d="M264 177L174 265L332 282Z" fill="#001324" stroke="#001324"></path><path d="M673 0L575 0L579 68Z" fill="#001220" stroke="#001220"></path><path d="M571 477L667 472L596 365Z" fill="#001837" stroke="#001837"></path><path d="M577 600L667 472L571 477Z" fill="#00162f" stroke="#00162f"></path><path d="M172 197L174 265L264 177Z" fill="#001733" stroke="#001733"></path><path d="M235 116L172 197L264 177Z" fill="#001837" stroke="#001837"></path><path d="M827 283L775 194L729 236Z" fill="#00152b" stroke="#00152b"></path><path d="M729 236L775 194L675 97Z" fill="#00183b" stroke="#00183b"></path><path d="M777 386L696 277L702 370Z" fill="#001427" stroke="#001427"></path><path d="M667 472L777 386L702 370Z" fill="#00162f" stroke="#00162f"></path><path d="M785 79L673 0L675 97Z" fill="#001837" stroke="#001837"></path><path d="M675 97L673 0L579 68Z" fill="#001733" stroke="#001733"></path><path d="M86 393L173 415L174 265Z" fill="#00152b" stroke="#00152b"></path><path d="M174 265L173 415L332 282Z" fill="#001220" stroke="#001220"></path><path d="M436 0L262 0L385 75Z" fill="#00162f" stroke="#00162f"></path><path d="M101 92L128 216L172 197Z" fill="#001427" stroke="#001427"></path><path d="M366 600L515 600L433 475Z" fill="#001733" stroke="#001733"></path><path d="M508 487L577 600L571 477Z" fill="#001427" stroke="#001427"></path><path d="M667 472L827 539L777 386Z" fill="#001942" stroke="#001942"></path><path d="M366 600L433 475L320 474Z" fill="#001427" stroke="#001427"></path><path d="M101 92L172 197L235 116Z" fill="#00183b" stroke="#00183b"></path><path d="M172 197L128 216L174 265Z" fill="#00162f" stroke="#00162f"></path><path d="M319 600L366 600L320 474Z" fill="#001733" stroke="#001733"></path><path d="M515 600L577 600L508 487Z" fill="#00101c" stroke="#00101c"></path><path d="M777 386L827 283L696 277Z" fill="#001942" stroke="#001942"></path><path d="M775 194L785 79L675 97Z" fill="#001837" stroke="#001837"></path><path d="M173 415L207 509L320 474Z" fill="#00193e" stroke="#00193e"></path><path d="M900 127L785 79L775 194Z" fill="#001220" stroke="#001220"></path><path d="M207 509L319 600L320 474Z" fill="#00183b" stroke="#00183b"></path><path d="M128 216L82 270L174 265Z" fill="#00183b" stroke="#00183b"></path><path d="M173 415L125 465L207 509Z" fill="#001942" stroke="#001942"></path><path d="M0 237L82 270L128 216Z" fill="#001837" stroke="#001837"></path><path d="M577 600L671 600L667 472Z" fill="#00183b" stroke="#00183b"></path><path d="M262 0L173 0L235 116Z" fill="#001837" stroke="#001837"></path><path d="M86 393L125 465L173 415Z" fill="#001220" stroke="#001220"></path><path d="M207 509L175 600L319 600Z" fill="#001427" stroke="#001427"></path><path d="M82 270L86 393L174 265Z" fill="#00183b" stroke="#00183b"></path><path d="M173 0L101 92L235 116Z" fill="#00162f" stroke="#00162f"></path><path d="M900 0L788 0L785 79Z" fill="#001733" stroke="#001733"></path><path d="M785 79L788 0L673 0Z" fill="#00101c" stroke="#00101c"></path><path d="M173 0L137 0L101 92Z" fill="#001324" stroke="#001324"></path><path d="M777 386L900 292L827 283Z" fill="#00152b" stroke="#00152b"></path><path d="M827 283L900 168L775 194Z" fill="#00162f" stroke="#00162f"></path><path d="M900 429L900 292L777 386Z" fill="#00183b" stroke="#00183b"></path><path d="M900 292L900 168L827 283Z" fill="#00162f" stroke="#00162f"></path><path d="M81 600L175 600L125 465Z" fill="#001733" stroke="#001733"></path><path d="M125 465L175 600L207 509Z" fill="#00183b" stroke="#00183b"></path><path d="M900 168L900 127L775 194Z" fill="#001942" stroke="#001942"></path><path d="M671 600L827 539L667 472Z" fill="#00193e" stroke="#00193e"></path><path d="M827 539L900 429L777 386Z" fill="#001837" stroke="#001837"></path><path d="M0 95L0 237L101 92Z" fill="#001942" stroke="#001942"></path><path d="M101 92L0 237L128 216Z" fill="#001733" stroke="#001733"></path><path d="M82 270L0 365L86 393Z" fill="#00162f" stroke="#00162f"></path><path d="M86 393L0 538L125 465Z" fill="#001942" stroke="#001942"></path><path d="M0 237L0 297L82 270Z" fill="#001427" stroke="#001427"></path><path d="M0 297L0 365L82 270Z" fill="#001324" stroke="#001324"></path><path d="M671 600L819 600L827 539Z" fill="#001837" stroke="#001837"></path><path d="M827 539L900 513L900 429Z" fill="#00162f" stroke="#00162f"></path><path d="M900 600L900 513L827 539Z" fill="#00183b" stroke="#00183b"></path><path d="M0 0L0 95L101 92Z" fill="#00183b" stroke="#00183b"></path><path d="M900 127L900 0L785 79Z" fill="#001942" stroke="#001942"></path><path d="M0 538L81 600L125 465Z" fill="#00193e" stroke="#00193e"></path><path d="M137 0L0 0L101 92Z" fill="#00162f" stroke="#00162f"></path><path d="M0 365L0 538L86 393Z" fill="#001942" stroke="#001942"></path><path d="M819 600L900 600L827 539Z" fill="#00162f" stroke="#00162f"></path><path d="M0 538L0 600L81 600Z" fill="#00162f" stroke="#00162f"></path></g></svg>