<svg id="visual" viewBox="0 0 900 600" width="900" height="600" xmlns="http://www.w3.org/2000/svg" xmlns:xlink="http://www.w3.org/1999/xlink" version="1.1"><path d="M0 97L82 97L82 73L164 73L164 127L245 127L245 79L327 79L327 43L409 43L409 61L491 61L491 133L573 133L573 85L655 85L655 115L736 115L736 85L818 85L818 43L900 43L900 67L900 0L900 0L818 0L818 0L736 0L736 0L655 0L655 0L573 0L573 0L491 0L491 0L409 0L409 0L327 0L327 0L245 0L245 0L164 0L164 0L82 0L82 0L0 0Z" fill="#003978"></path><path d="M0 205L82 205L82 205L164 205L164 223L245 223L245 295L327 295L327 313L409 313L409 313L491 313L491 235L573 235L573 223L655 223L655 337L736 337L736 265L818 265L818 181L900 181L900 205L900 65L900 41L818 41L818 83L736 83L736 113L655 113L655 83L573 83L573 131L491 131L491 59L409 59L409 41L327 41L327 77L245 77L245 125L164 125L164 71L82 71L82 95L0 95Z" fill="#00538c"></path><path d="M0 391L82 391L82 445L164 445L164 427L245 427L245 427L327 427L327 403L409 403L409 421L491 421L491 421L573 421L573 379L655 379L655 433L736 433L736 397L818 397L818 451L900 451L900 475L900 203L900 179L818 179L818 263L736 263L736 335L655 335L655 221L573 221L573 233L491 233L491 311L409 311L409 311L327 311L327 293L245 293L245 221L164 221L164 203L82 203L82 203L0 203Z" fill="#006c9c"></path><path d="M0 553L82 553L82 547L164 547L164 547L245 547L245 499L327 499L327 535L409 535L409 565L491 565L491 559L573 559L573 529L655 529L655 517L736 517L736 535L818 535L818 511L900 511L900 547L900 473L900 449L818 449L818 395L736 395L736 431L655 431L655 377L573 377L573 419L491 419L491 419L409 419L409 401L327 401L327 425L245 425L245 425L164 425L164 443L82 443L82 389L0 389Z" fill="#0085a8"></path><path d="M0 601L82 601L82 601L164 601L164 601L245 601L245 601L327 601L327 601L409 601L409 601L491 601L491 601L573 601L573 601L655 601L655 601L736 601L736 601L818 601L818 601L900 601L900 601L900 545L900 509L818 509L818 533L736 533L736 515L655 515L655 527L573 527L573 557L491 557L491 563L409 563L409 533L327 533L327 497L245 497L245 545L164 545L164 545L82 545L82 551L0 551Z" fill="#239db0"></path></svg>